<?xml version="1.0" standalone="no"?>
<!DOCTYPE svg PUBLIC "-//W3C//DTD SVG 20010904//EN"
 "http://www.w3.org/TR/2001/REC-SVG-20010904/DTD/svg10.dtd">
<svg version="1.0" xmlns="http://www.w3.org/2000/svg"
 width="260.000000pt" height="260.000000pt" viewBox="0 0 260.000000 260.000000"
 preserveAspectRatio="xMidYMid meet">
<metadata>
Created by potrace 1.14, written by Peter Selinger 2001-2017
</metadata>
<g transform="translate(0.000000,260.000000) scale(0.100000,-0.100000)"
fill="#000000" stroke="none">
<path d="M0 1300 l0 -1300 1300 0 1300 0 0 1300 0 1300 -1300 0 -1300 0 0
-1300z m1893 564 c33 -8 77 -24 96 -34 22 -10 48 -16 67 -13 37 6 64 -17 64
-54 0 -14 14 -42 30 -63 47 -60 88 -158 101 -242 45 -284 -175 -538 -466 -538
-97 0 -147 8 -142 24 3 7 37 10 108 8 86 -3 115 0 167 17 112 38 193 103 246
197 41 72 56 129 56 218 0 100 -27 193 -80 274 -33 52 -44 62 -68 62 -32 0
-52 16 -52 43 0 13 -20 28 -67 50 -63 30 -76 32 -173 32 -97 0 -110 -2 -173
-32 -83 -40 -158 -102 -199 -165 -17 -26 -35 -48 -39 -48 -36 0 14 83 93 156
118 107 278 148 431 108z m-473 -349 c0 -45 0 -45 36 -45 26 0 43 -8 65 -29
29 -29 29 -30 29 -151 0 -121 0 -122 -29 -151 -22 -21 -39 -29 -65 -29 -34 0
-36 -2 -36 -35 0 -32 -2 -35 -30 -35 -28 0 -30 3 -30 35 0 31 -3 35 -25 35
-41 0 -82 27 -94 61 -6 18 -11 72 -11 121 0 132 26 178 99 178 29 0 31 2 31
38 0 45 5 52 37 52 21 0 23 -5 23 -45z m378 -2 c3 -40 5 -43 33 -43 21 0 40
-10 61 -30 l30 -30 -4 -126 c-3 -124 -3 -126 -31 -150 -16 -14 -41 -24 -58
-24 -27 0 -29 -3 -29 -35 0 -33 -2 -35 -35 -35 -33 0 -35 2 -35 35 0 29 -4 35
-20 35 -11 0 -36 6 -55 14 -41 18 -55 58 -55 166 0 130 28 180 100 180 29 0
30 1 30 46 0 45 0 45 33 42 30 -3 32 -6 35 -45z m-674 -4 c48 -22 58 -64 54
-235 l-3 -156 -34 -30 c-31 -28 -39 -30 -89 -26 -66 6 -96 33 -107 98 -8 48 2
63 36 58 20 -2 25 -10 27 -43 4 -48 17 -65 48 -65 41 0 54 25 54 101 l0 69
-35 0 c-28 0 -35 4 -35 20 0 17 7 20 41 20 l41 0 -7 63 c-8 72 -18 87 -55 87
-35 0 -48 -16 -52 -65 -2 -33 -7 -41 -27 -43 -34 -5 -43 9 -35 59 10 64 49 99
108 99 25 0 56 -5 70 -11z m-732 -146 l3 -146 61 144 c55 129 64 144 88 147
l26 3 0 -225 0 -226 -30 0 -30 0 0 153 0 152 -63 -150 c-58 -137 -65 -150 -90
-153 l-27 -3 0 225 0 226 30 0 29 0 3 -147z m308 52 l0 -95 55 0 55 0 0 95 0
95 40 0 40 0 0 -225 0 -225 -40 0 -40 0 0 105 0 105 -55 0 -55 0 0 -105 0
-105 -30 0 -30 0 0 225 0 225 30 0 30 0 0 -95z m1480 -551 c51 -64 93 -124 94
-133 3 -41 -39 -6 -129 108 -74 94 -94 126 -84 132 8 5 17 9 20 9 4 0 48 -52
99 -116z"/>
<path d="M1317 1417 c-15 -11 -17 -28 -15 -132 l3 -120 28 -3 27 -3 0 135 c0
142 -4 153 -43 123z"/>
<path d="M1420 1295 l0 -135 29 0 c17 0 31 6 35 16 3 9 6 65 6 124 0 98 -2
110 -19 120 -49 25 -51 19 -51 -125z"/>
<path d="M1685 1416 c-15 -11 -19 -30 -23 -97 -5 -111 5 -153 41 -157 l27 -3
0 135 c0 143 -3 153 -45 122z"/>
<path d="M1800 1295 l0 -135 24 0 c32 0 36 14 36 135 0 106 -10 135 -46 135
-11 0 -14 -25 -14 -135z"/>
</g>
</svg>
