<svg width="42" height="42" viewBox="0 0 42 42" fill="none" xmlns="http://www.w3.org/2000/svg">
<circle cx="21" cy="21" r="20" fill="white" stroke="#0039A9" stroke-width="2"/>
<path d="M25.5625 28H16.958V26.5322L21.2207 21.8828C21.8359 21.1973 22.2725 20.626 22.5303 20.1689C22.7939 19.7061 22.9258 19.2432 22.9258 18.7803C22.9258 18.1709 22.7529 17.6787 22.4072 17.3037C22.0674 16.9287 21.6074 16.7412 21.0273 16.7412C20.3359 16.7412 19.7998 16.9521 19.4189 17.374C19.0381 17.7959 18.8477 18.373 18.8477 19.1055H16.7119C16.7119 18.3262 16.8877 17.626 17.2393 17.0049C17.5967 16.3779 18.1035 15.8916 18.7598 15.5459C19.4219 15.2002 20.1836 15.0273 21.0449 15.0273C22.2871 15.0273 23.2656 15.3408 23.9805 15.9678C24.7012 16.5889 25.0615 17.4502 25.0615 18.5518C25.0615 19.1904 24.8799 19.8613 24.5166 20.5645C24.1592 21.2617 23.5703 22.0557 22.75 22.9463L19.6211 26.2949H25.5625V28Z" fill="#0039A9"/>
</svg>
