<svg width="42" height="42" viewBox="0 0 42 42" fill="none" xmlns="http://www.w3.org/2000/svg">
<circle cx="21" cy="21" r="20" fill="white" stroke="#0039A9" stroke-width="2"/>
<path d="M19.4277 20.626H20.7285C21.3848 20.6201 21.9033 20.4502 22.2842 20.1162C22.6709 19.7822 22.8643 19.2988 22.8643 18.666C22.8643 18.0566 22.7031 17.585 22.3809 17.251C22.0645 16.9111 21.5781 16.7412 20.9219 16.7412C20.3477 16.7412 19.876 16.9082 19.5068 17.2422C19.1377 17.5703 18.9531 18.001 18.9531 18.5342H16.8174C16.8174 17.8779 16.9902 17.2803 17.3359 16.7412C17.6875 16.2021 18.1738 15.7832 18.7949 15.4844C19.4219 15.1797 20.1221 15.0273 20.8955 15.0273C22.1729 15.0273 23.1748 15.3496 23.9014 15.9941C24.6338 16.6328 25 17.5234 25 18.666C25 19.2402 24.8154 19.7822 24.4463 20.292C24.083 20.7959 23.6113 21.1768 23.0312 21.4346C23.7344 21.6748 24.2676 22.0527 24.6309 22.5684C25 23.084 25.1846 23.6992 25.1846 24.4141C25.1846 25.5625 24.7891 26.4766 23.998 27.1562C23.2129 27.8359 22.1787 28.1758 20.8955 28.1758C19.665 28.1758 18.6572 27.8477 17.8721 27.1914C17.0869 26.5352 16.6943 25.6621 16.6943 24.5723H18.8301C18.8301 25.1348 19.0176 25.5918 19.3926 25.9434C19.7734 26.2949 20.2832 26.4707 20.9219 26.4707C21.584 26.4707 22.1055 26.2949 22.4863 25.9434C22.8672 25.5918 23.0576 25.082 23.0576 24.4141C23.0576 23.7402 22.8584 23.2217 22.46 22.8584C22.0615 22.4951 21.4697 22.3135 20.6846 22.3135H19.4277V20.626Z" fill="#0039A9"/>
</svg>
