<svg width="42" height="42" viewBox="0 0 42 42" fill="none" xmlns="http://www.w3.org/2000/svg">
<circle cx="21" cy="21" r="20" fill="white" stroke="#0039A9" stroke-width="2"/>
<path d="M17.5293 20.6543L18.2236 14.2031H25.0967V16.0488H19.999L19.6475 19.1074C20.2393 18.7676 20.9072 18.5977 21.6514 18.5977C22.8701 18.5977 23.8164 18.9873 24.4902 19.7666C25.1699 20.5459 25.5098 21.5947 25.5098 22.9131C25.5098 24.2139 25.1348 25.251 24.3848 26.0244C23.6348 26.792 22.6064 27.1758 21.2998 27.1758C20.1279 27.1758 19.1553 26.8447 18.3818 26.1826C17.6143 25.5146 17.1982 24.6357 17.1338 23.5459H19.1992C19.2812 24.167 19.5039 24.6445 19.8672 24.9785C20.2305 25.3066 20.7051 25.4707 21.291 25.4707C21.9473 25.4707 22.457 25.2363 22.8203 24.7676C23.1895 24.2988 23.374 23.6602 23.374 22.8516C23.374 22.0723 23.1719 21.457 22.7676 21.0059C22.3633 20.5488 21.8066 20.3203 21.0977 20.3203C20.7109 20.3203 20.3828 20.373 20.1133 20.4785C19.8438 20.5781 19.5508 20.7773 19.2344 21.0762L17.5293 20.6543Z" fill="#0039A9"/>
</svg>
