<svg width="48" height="48" viewBox="0 0 48 48" fill="none" xmlns="http://www.w3.org/2000/svg">
<path d="M26.6776 28.964L24.5696 26.856C24.3216 26.608 23.9496 26.608 23.7016 26.856C23.4536 27.104 23.4536 27.476 23.7016 27.724L26.2436 30.266C26.3676 30.39 26.5536 30.452 26.6776 30.452C26.8636 30.452 26.9876 30.39 27.1116 30.266L32.2576 25.12C32.5056 24.872 32.5056 24.5 32.2576 24.252C32.0096 24.004 31.6376 24.004 31.3896 24.252L26.6776 28.964Z" fill="#0039A9"/>
<path d="M39.5118 34.358L35.2958 30.142C35.6058 29.398 35.8538 28.592 35.9158 27.786C36.1018 25.678 35.4818 23.57 34.1178 21.958C33.3738 21.028 32.4438 20.346 31.3898 19.85V16.626C31.3898 15.138 30.1498 13.898 28.5998 13.898H26.9258V13.03C26.9258 12.1 26.1818 11.356 25.1898 11.356H23.3298C23.0198 10.364 22.0898 9.62 21.0358 9.62C19.9198 9.62 19.0518 10.364 18.7418 11.294H16.8818C15.8898 11.356 15.1458 12.1 15.1458 13.03V13.898H13.4718C11.9218 13.898 10.6818 15.138 10.6818 16.626V36.652C10.6198 38.14 11.9218 39.38 13.4718 39.38H28.5998C30.1498 39.38 31.3898 38.14 31.3898 36.59V34.606L35.2958 38.512C36.4118 39.628 38.2718 39.69 39.4498 38.512C40.6278 37.334 40.6898 35.474 39.5118 34.358ZM33.1878 22.702C34.3038 24.066 34.8618 25.864 34.6758 27.6C34.4278 30.142 32.8158 32.25 30.5838 33.18C30.5838 33.18 30.5838 33.18 30.5218 33.18C29.5298 33.614 28.4758 33.738 27.2978 33.676C23.5778 33.304 20.9118 30.018 21.2838 26.298C21.4698 24.562 22.2758 23.012 23.5158 21.896C23.5158 21.896 23.5158 21.896 23.5778 21.834C24.9418 20.656 26.8018 20.036 28.6618 20.222C29.3438 20.284 29.9638 20.47 30.5838 20.718C31.5758 21.214 32.4438 21.834 33.1878 22.702ZM16.3858 13.03C16.3858 12.782 16.6338 12.596 16.8818 12.596H19.2998C19.6718 12.596 19.9198 12.348 19.9198 11.976C19.9198 11.356 20.4158 10.922 21.0358 10.922C21.6558 10.922 22.2138 11.418 22.2138 11.976C22.2138 12.348 22.4618 12.596 22.8338 12.596H25.2518C25.4998 12.596 25.7478 12.782 25.7478 13.03V16.006C25.7478 16.254 25.4998 16.44 25.2518 16.44H16.8818C16.6338 16.44 16.3858 16.254 16.3858 16.006V13.03ZM28.5998 38.14H13.4718C12.6038 38.14 11.8598 37.458 11.8598 36.652V16.626C11.8598 15.82 12.5418 15.138 13.4098 15.138H15.0838V16.006C15.0838 16.936 15.8278 17.68 16.8198 17.68H25.1898C26.1198 17.68 26.9258 16.936 26.9258 16.006V15.138H28.5998C29.4678 15.138 30.1498 15.82 30.1498 16.626V19.354C29.7158 19.23 29.2198 19.106 28.7238 19.106C26.4918 18.858 24.4458 19.602 22.8338 20.904H15.3938C15.0218 20.904 14.7738 21.152 14.7738 21.524C14.7738 21.896 15.0218 22.144 15.3938 22.144H21.6558C21.2218 22.702 20.9118 23.26 20.6018 23.942H15.4558C15.0838 23.942 14.8358 24.19 14.8358 24.562C14.8358 24.934 15.0838 25.182 15.4558 25.182H20.2918C20.2298 25.554 20.1058 25.926 20.1058 26.298C20.1058 26.546 20.1058 26.732 20.1058 26.98H15.4558C15.0838 26.98 14.8358 27.228 14.8358 27.6C14.8358 27.972 15.0838 28.22 15.4558 28.22H20.1058C20.1678 28.84 20.3538 29.398 20.5398 30.018H15.4558C15.0838 30.018 14.8358 30.266 14.8358 30.638C14.8358 31.01 15.0838 31.258 15.4558 31.258H21.1598C21.5318 31.94 22.0278 32.498 22.5858 32.994H15.4558C15.0838 32.994 14.8358 33.242 14.8358 33.614C14.8358 33.986 15.0838 34.234 15.4558 34.234H24.4458C25.3138 34.668 26.1818 34.916 27.1738 35.04C28.1658 35.164 29.1578 35.04 30.1498 34.792V36.714C30.2118 37.396 29.4678 38.14 28.5998 38.14ZM38.6438 37.644C37.9618 38.326 36.9078 38.326 36.2258 37.644L32.2578 33.738C33.2498 33.118 34.0558 32.312 34.6758 31.32L38.5818 35.226C39.3258 35.908 39.3258 36.962 38.6438 37.644Z" fill="#0039A9"/>
<circle cx="24" cy="24" r="23.25" stroke="#0039A9" stroke-width="1.5"/>
</svg>
