<svg width="48" height="48" viewBox="0 0 48 48" fill="none" xmlns="http://www.w3.org/2000/svg">
<path d="M35.8867 21.4528H35.632V15.5943C35.632 15.5943 35.632 15.566 35.632 15.549C35.6347 15.5038 35.6347 15.4584 35.632 15.4132C35.6343 15.3944 35.6343 15.3754 35.632 15.3566C35.6066 15.3004 35.5722 15.2488 35.5301 15.2038L30.5094 10.217C30.4633 10.1681 30.4073 10.1295 30.3452 10.1038H30.2943C30.2437 10.0946 30.192 10.0946 30.1415 10.1038H30.1132H19.1547C18.7328 10.1038 18.3283 10.2713 18.03 10.5696C17.7317 10.8679 17.5641 11.2725 17.5641 11.6943V15.0906H11.6999C11.3697 15.0902 11.052 15.217 10.8127 15.4446C10.5734 15.6723 10.431 15.9833 10.415 16.3132V35.1736C10.4165 35.9087 10.7092 36.6133 11.2291 37.1331C11.7489 37.653 12.4535 37.9457 13.1886 37.9472H34.8226C35.5547 37.9457 36.2564 37.6542 36.7742 37.1365C37.2919 36.6188 37.5834 35.917 37.5849 35.1849V23.1509C37.5849 22.7006 37.4059 22.2686 37.0875 21.9502C36.769 21.6317 36.3371 21.4528 35.8867 21.4528ZM33.6962 15.0226H31.1094C30.9893 15.0226 30.8741 14.9749 30.7892 14.89C30.7043 14.8051 30.6565 14.6899 30.6565 14.5698V11.983L33.6962 15.0226ZM18.6962 11.6264C18.6962 11.5048 18.7445 11.3882 18.8305 11.3022C18.9164 11.2162 19.0331 11.1679 19.1547 11.1679H29.5245V14.5641C29.5245 14.9845 29.6915 15.3876 29.9887 15.6848C30.2859 15.9821 30.689 16.149 31.1094 16.149H34.5056V30.2377C34.5056 30.3593 34.4573 30.4759 34.3713 30.5619C34.2853 30.6479 34.1687 30.6962 34.0471 30.6962H33.1867V19.5679C33.1867 19.1175 33.0078 18.6856 32.6894 18.3672C32.3709 18.0487 31.939 17.8698 31.4886 17.8698H22.9981L21.866 15.7189C21.7584 15.5113 21.596 15.3372 21.3964 15.2154C21.1968 15.0937 20.9677 15.029 20.7339 15.0283H18.6962V11.6264ZM11.5471 35.1736V16.3132C11.5471 16.2727 11.5632 16.2338 11.5919 16.2051C11.6205 16.1765 11.6594 16.1604 11.6999 16.1604H20.7565C20.7844 16.1594 20.8119 16.1663 20.8359 16.1803C20.86 16.1944 20.8796 16.2149 20.8924 16.2396L22.1716 18.6962C22.2195 18.7885 22.2918 18.8659 22.3806 18.9198C22.4695 18.9737 22.5715 19.0021 22.6754 19.0019H31.4943C31.6444 19.0019 31.7884 19.0615 31.8945 19.1677C32.0007 19.2738 32.0603 19.4178 32.0603 19.5679V35.066C32.0529 35.6952 32.2518 36.3095 32.6264 36.8151H13.1886C12.7533 36.8151 12.3357 36.6421 12.0279 36.3343C11.7201 36.0265 11.5471 35.6089 11.5471 35.1736ZM36.4528 35.1736C36.45 35.5962 36.2832 36.0013 35.9875 36.3033C35.6918 36.6053 35.2904 36.7807 34.8679 36.7924C33.6113 36.4811 33.1698 35.9094 33.1698 34.6981V31.8113H34.0245C34.4459 31.8098 34.8496 31.6418 35.1475 31.3438C35.4455 31.0458 35.6136 30.6421 35.615 30.2207V22.5849H35.8698C36.0199 22.5849 36.1639 22.6445 36.27 22.7507C36.3762 22.8568 36.4358 23.0008 36.4358 23.1509L36.4528 35.1736Z" fill="#0039A9"/>
<path d="M29.0552 21.4528H25.3024C25.1522 21.4528 25.0083 21.5125 24.9021 21.6186C24.796 21.7248 24.7363 21.8687 24.7363 22.0189C24.7363 22.169 24.796 22.313 24.9021 22.4191C25.0083 22.5253 25.1522 22.5849 25.3024 22.5849H28.4892V24.3792C28.4892 24.5294 28.5488 24.6733 28.6549 24.7795C28.7611 24.8856 28.9051 24.9453 29.0552 24.9453C29.2053 24.9453 29.3493 24.8856 29.4554 24.7795C29.5616 24.6733 29.6212 24.5294 29.6212 24.3792V22.0189C29.6212 21.8687 29.5616 21.7248 29.4554 21.6186C29.3493 21.5125 29.2053 21.4528 29.0552 21.4528Z" fill="#0039A9"/>
<circle cx="24" cy="24" r="23.25" stroke="#0039A9" stroke-width="1.5"/>
</svg>
