<svg width="94" height="100" viewBox="0 0 94 100" fill="none" xmlns="http://www.w3.org/2000/svg">
<g filter="url(#filter0_d_158_3207)">
<path d="M28.333 24.332C24.4752 24.332 21.333 27.4742 21.333 31.332V54.6654C21.333 58.5232 24.4752 61.6654 28.333 61.6654H65.6663C69.5242 61.6654 72.6663 58.5232 72.6663 54.6654V31.332C72.6663 27.4742 69.5242 24.332 65.6663 24.332H28.333ZM28.333 26.6654H65.6663C68.2719 26.6654 70.333 28.7265 70.333 31.332V54.6654C70.333 57.2709 68.2719 59.332 65.6663 59.332H28.333C25.7275 59.332 23.6663 57.2709 23.6663 54.6654V31.332C23.6663 28.7265 25.7275 26.6654 28.333 26.6654Z" fill="#0039A9"/>
<path d="M29.5337 31.3325C29.3748 31.3279 29.2166 31.3559 29.0689 31.4147C28.9211 31.4735 28.787 31.5618 28.6747 31.6743C28.4559 31.8931 28.333 32.1898 28.333 32.4992C28.333 32.8086 28.4559 33.1053 28.6747 33.3241L42.6746 47.3241C45.0535 49.7029 48.9456 49.7029 51.3244 47.3241L65.3244 33.3241C65.5432 33.1053 65.6661 32.8086 65.6661 32.4992C65.6661 32.1898 65.5432 31.8931 65.3244 31.6743C65.1056 31.4556 64.8089 31.3327 64.4995 31.3327C64.1902 31.3327 63.8934 31.4556 63.6746 31.6743L49.6747 45.6743C48.1875 47.1615 45.8116 47.1615 44.3244 45.6743L30.3244 31.6743C30.1141 31.4637 29.8313 31.3414 29.5337 31.3325H29.5337Z" fill="#0039A9"/>
<circle cx="47" cy="43" r="42" stroke="#0039A9" stroke-width="2"/>
</g>
<defs>
<filter id="filter0_d_158_3207" x="0" y="0" width="94" height="100" filterUnits="userSpaceOnUse" color-interpolation-filters="sRGB">
<feFlood flood-opacity="0" result="BackgroundImageFix"/>
<feColorMatrix in="SourceAlpha" type="matrix" values="0 0 0 0 0 0 0 0 0 0 0 0 0 0 0 0 0 0 127 0" result="hardAlpha"/>
<feOffset dy="4"/>
<feGaussianBlur stdDeviation="2"/>
<feComposite in2="hardAlpha" operator="out"/>
<feColorMatrix type="matrix" values="0 0 0 0 0 0 0 0 0 0 0 0 0 0 0 0 0 0 0.25 0"/>
<feBlend mode="normal" in2="BackgroundImageFix" result="effect1_dropShadow_158_3207"/>
<feBlend mode="normal" in="SourceGraphic" in2="effect1_dropShadow_158_3207" result="shape"/>
</filter>
</defs>
</svg>
