<svg width="36" height="35" viewBox="0 0 36 35" fill="none" xmlns="http://www.w3.org/2000/svg">
<g clip-path="url(#clip0_166_909)">
<path d="M16.0902 12.1398V14.5495H14.3262V17.4947H16.0902V26.25H19.7162V17.4947H22.1487C22.1487 17.4947 22.3779 16.0825 22.4882 14.5373H19.7302V12.5247C19.7302 12.222 20.1257 11.8178 20.5177 11.8178H22.4917V8.75H19.8054C16.0009 8.75 16.0902 11.6988 16.0902 12.1398Z" fill="#0039A9"/>
<path d="M7.875 3.5C6.94674 3.5 6.0565 3.86875 5.40013 4.52513C4.74375 5.1815 4.375 6.07174 4.375 7V28C4.375 28.9283 4.74375 29.8185 5.40013 30.4749C6.0565 31.1313 6.94674 31.5 7.875 31.5H28.875C29.8033 31.5 30.6935 31.1313 31.3499 30.4749C32.0063 29.8185 32.375 28.9283 32.375 28V7C32.375 6.07174 32.0063 5.1815 31.3499 4.52513C30.6935 3.86875 29.8033 3.5 28.875 3.5H7.875ZM7.875 0H28.875C30.7315 0 32.512 0.737498 33.8247 2.05025C35.1375 3.36301 35.875 5.14348 35.875 7V28C35.875 29.8565 35.1375 31.637 33.8247 32.9497C32.512 34.2625 30.7315 35 28.875 35H7.875C6.01848 35 4.23801 34.2625 2.92525 32.9497C1.6125 31.637 0.875 29.8565 0.875 28V7C0.875 5.14348 1.6125 3.36301 2.92525 2.05025C4.23801 0.737498 6.01848 0 7.875 0Z" fill="#0039A9"/>
</g>
<defs>
<clipPath id="clip0_166_909">
<rect width="35" height="35" fill="white" transform="translate(0.875)"/>
</clipPath>
</defs>
</svg>
