<svg width="48" height="48" viewBox="0 0 48 48" fill="none" xmlns="http://www.w3.org/2000/svg">
<circle cx="24" cy="24" r="23.25" stroke="#0039A9" stroke-width="1.5"/>
<path d="M24.7925 10.5C17.4159 10.5 13.6474 12.7522 13.6474 12.7522C13.505 12.8235 13.3903 12.9401 13.3212 13.0837C13.2521 13.2274 13.2326 13.3899 13.2657 13.5459C13.2657 13.5459 13.8326 26.8555 15.4765 33.0019C16.1439 35.4974 18.4578 37.3443 20.5341 38.6448C22.6104 39.9454 24.5343 40.6863 24.5343 40.6863C24.7005 40.7504 24.8846 40.7504 25.0507 40.6863C25.0507 40.6863 26.9747 39.9454 29.051 38.6448C31.1272 37.3443 33.4412 35.4974 34.1086 33.0019C35.7524 26.8555 35.7343 13.1692 35.7343 13.1692C35.7674 13.0133 35.7479 12.8507 35.6788 12.7071C35.6097 12.5634 35.495 12.4468 35.3526 12.3756C35.3526 12.3756 32.1692 10.5 24.7925 10.5ZM24.7925 11.9397C30.8902 11.9397 33.2985 12.9235 34.4928 13.4695C34.4614 13.6167 34.4194 14.2059 34.4194 14.9408C32.6144 14.2059 29.6366 13.3808 24.7911 13.3808C19.947 13.3808 16.2221 14.5814 14.4157 15.3167C14.4157 14.6561 14.336 13.8112 14.3047 13.6641C15.499 13.1181 18.6949 11.9397 24.7925 11.9397ZM24.7911 14.8177C29.4707 14.8177 32.9934 15.8266 34.4928 16.4389C34.4928 21.6363 33.8432 28.4323 32.7207 32.6294C32.233 34.453 30.2356 36.2055 28.2896 37.4244C26.5626 38.5062 25.135 39.0914 24.7925 39.229C24.45 39.0914 23.0225 38.5062 21.2954 37.4244C19.3494 36.2055 17.3521 34.453 16.8644 32.6294C15.742 28.4325 14.7265 21.75 14.7265 16.748C16.2245 16.136 20.111 14.8177 24.7911 14.8177ZM28.6648 21.7197C28.4784 21.7254 28.3015 21.8036 28.1715 21.9376L24.0726 26.0381L21.9905 23.9549C21.9249 23.8834 21.8456 23.8259 21.7572 23.7859C21.6689 23.746 21.5734 23.7243 21.4765 23.7222C21.3796 23.7202 21.2833 23.7378 21.1934 23.774C21.1034 23.8102 21.0217 23.8643 20.9532 23.9329C20.8846 24.0016 20.8307 24.0834 20.7945 24.1735C20.7584 24.2637 20.7408 24.3601 20.7429 24.4572C20.7449 24.5543 20.7666 24.65 20.8065 24.7385C20.8464 24.827 20.9038 24.9065 20.9752 24.9722L23.566 27.5664C23.7008 27.7014 23.8835 27.7772 24.074 27.7772C24.2646 27.7772 24.4473 27.7014 24.582 27.5664L29.1875 22.9555C29.2914 22.8544 29.3624 22.7241 29.391 22.5819C29.4197 22.4396 29.4048 22.292 29.3483 22.1584C29.2918 22.0247 29.1963 21.9113 29.0743 21.8331C28.9523 21.7548 28.8096 21.7152 28.6648 21.7197Z" fill="#0039A9"/>
</svg>
