<svg width="48" height="48" viewBox="0 0 48 48" fill="none" xmlns="http://www.w3.org/2000/svg">
<path d="M15.7669 32.45V32.6125H14.3044V36.7291H23.1877V32.6125H21.9419V29.0375C21.9419 28.3333 21.671 27.6833 21.1835 27.1416L18.5294 24.4875C18.096 24.0541 17.3919 23.8916 16.796 24.1625C16.2002 24.4333 15.8752 25.0291 15.9294 25.6791C15.9835 26.1125 16.2002 26.5458 16.5252 26.8708L17.8794 28.225L17.5002 28.2791C16.9585 28.2791 16.471 28.0625 16.0919 27.6833C15.171 26.7625 14.6835 25.5708 14.6835 24.325V23.025C14.6835 22.05 14.0877 21.1833 13.221 20.8041C12.9502 20.6958 12.6794 20.5875 12.4085 20.5875C12.1377 20.5333 11.8669 20.6416 11.6502 20.8041C11.4335 20.9666 11.3252 21.2375 11.3252 21.5083V24.975C11.3252 26.925 12.0835 28.7666 13.4919 30.175L15.7669 32.45ZM22.1044 33.6958V35.6458H15.3877V33.6958H15.7127H21.9419H22.1044ZM12.3544 21.6166C12.4627 21.6708 12.6252 21.6708 12.7335 21.725C13.221 21.9416 13.546 22.4291 13.546 22.9166V24.2166C13.546 25.7875 14.1419 27.25 15.2794 28.3875C15.8752 28.9833 16.6877 29.3083 17.5002 29.3083L18.8544 29.0916C19.071 29.0375 19.2877 28.875 19.3419 28.6583C19.396 28.4416 19.3419 28.1708 19.1794 28.0083L17.2294 26.0583C17.0669 25.8958 16.9585 25.7333 16.9585 25.5708C16.9585 25.3 17.121 25.1916 17.2294 25.1375C17.2835 25.0833 17.5002 25.0291 17.7169 25.2458L20.371 27.9C20.696 28.225 20.8585 28.6041 20.8585 29.0375V32.6125H16.796V32.45C16.796 32.125 16.6877 31.8541 16.471 31.6375L14.1419 29.3083C12.9502 28.1166 12.3002 26.5458 12.3002 24.9208V21.6166H12.3544ZM35.646 20.5333C35.5919 20.5333 35.5377 20.5333 35.4835 20.5333C34.2377 20.8041 33.3169 21.9416 33.3169 23.2416V24.2708C33.3169 25.5708 32.8294 26.7625 31.9085 27.6291C31.5294 28.0083 31.0419 28.225 30.5002 28.225L30.121 28.1708L31.4752 26.8166C31.8002 26.4916 32.0169 26.0583 32.071 25.625C32.1252 24.975 31.8002 24.3791 31.2044 24.1083C30.6085 23.8375 29.9585 23.9458 29.471 24.4333L26.8169 27.0875C26.3294 27.575 26.0585 28.2791 26.0585 28.9833V32.5583H24.8127V36.675H33.696V32.5583H32.2877V32.3416L34.6169 30.0125C36.0252 28.6041 36.7835 26.7625 36.7835 24.8125V21.3458C36.7835 21.075 36.6752 20.8041 36.4585 20.6416C36.1877 20.5333 35.9169 20.4791 35.646 20.5333ZM32.5585 33.6958V35.6458H25.896V33.6958H26.0585H32.2877H32.5585ZM35.646 24.8666C35.646 26.5458 34.996 28.1166 33.8044 29.2541L31.4752 31.5833C31.2585 31.8 31.1502 32.0708 31.1502 32.3958V32.5583H27.0877V28.9833C27.0877 28.55 27.2502 28.1708 27.5752 27.8458L30.2294 25.1916C30.446 24.975 30.6627 25.0833 30.7169 25.0833C30.771 25.1375 30.9877 25.2458 30.9877 25.5166C30.9877 25.6791 30.8794 25.8958 30.7169 26.0583L28.7669 28.0083C28.6044 28.1708 28.5502 28.4416 28.6044 28.6583C28.6585 28.875 28.8752 29.0375 29.0919 29.0916L30.3919 29.3083H30.5002C31.3669 29.3083 32.1252 28.9833 32.721 28.3875C33.8044 27.3041 34.4544 25.7875 34.4544 24.2166V23.1875C34.4544 22.4291 34.9419 21.725 35.646 21.5625V24.8666ZM27.0877 14.3583C27.0877 12.6791 25.7335 11.2708 24.0002 11.2708C22.2669 11.2708 20.9127 12.625 20.9127 14.3583C20.9127 15.4958 21.5085 16.4708 22.4294 17.0125C20.1544 17.7166 18.421 19.8291 18.421 22.3208V22.8625H29.6335V22.3208C29.5794 19.8291 27.9002 17.7166 25.6252 17.0125C26.4919 16.4166 27.0877 15.4416 27.0877 14.3583ZM28.496 21.725H19.5044C19.8294 19.5041 21.7252 17.825 24.0002 17.825C26.2752 17.825 28.171 19.5583 28.496 21.725ZM24.0002 16.3083C22.9169 16.3083 21.996 15.4416 21.996 14.3041C21.996 13.2208 22.8627 12.3 24.0002 12.3C25.0835 12.3 26.0044 13.1666 26.0044 14.3041C26.0044 15.4416 25.0835 16.3083 24.0002 16.3083Z" fill="#0039A9"/>
<circle cx="24" cy="24" r="23.25" stroke="#0039A9" stroke-width="1.5"/>
</svg>
