<svg width="86" height="86" viewBox="0 0 86 86" fill="none" xmlns="http://www.w3.org/2000/svg">
<circle cx="43" cy="43" r="42" stroke="#0039A9" stroke-width="2"/>
<path d="M43.4997 68.7339L42.5909 67.4188C41.9075 66.4284 25.833 43.051 25.833 33.6667C25.833 23.9257 33.7587 16 43.4997 16C53.2406 16 61.1663 23.9257 61.1663 33.6667C61.1663 43.051 45.0919 66.4284 44.4084 67.4188L43.4997 68.7339ZM43.4997 18.2083C34.9755 18.2083 28.0413 25.1425 28.0413 33.6667C28.0413 41.1606 40.0602 59.6753 43.4997 64.8196C46.9391 59.6753 58.958 41.1606 58.958 33.6667C58.958 25.1425 52.0238 18.2083 43.4997 18.2083Z" fill="#0039A9"/>
<path d="M43.4997 41.3958C39.2387 41.3958 35.7705 37.9287 35.7705 33.6667C35.7705 29.4046 39.2387 25.9375 43.4997 25.9375C47.7607 25.9375 51.2288 29.4046 51.2288 33.6667C51.2288 37.9287 47.7607 41.3958 43.4997 41.3958ZM43.4997 28.1458C40.4555 28.1458 37.9788 30.6225 37.9788 33.6667C37.9788 36.7109 40.4555 39.1875 43.4997 39.1875C46.5439 39.1875 49.0205 36.7109 49.0205 33.6667C49.0205 30.6225 46.5439 28.1458 43.4997 28.1458Z" fill="#0039A9"/>
</svg>
