<svg width="36" height="35" viewBox="0 0 36 35" fill="none" xmlns="http://www.w3.org/2000/svg">
<rect x="2.54199" y="1.75" width="31.5" height="31.5" rx="4.25" stroke="#0039A9" stroke-width="3.5"/>
<path d="M17.5475 17.1235C14.6293 17.1235 12.2039 14.7001 12.2039 11.8326C12.2039 8.86582 14.6293 6.44141 17.5485 6.44141C20.5669 6.44141 22.8922 8.86479 22.8922 11.8326C22.887 13.2406 22.3229 14.5889 21.324 15.5812C20.3251 16.5736 18.9731 17.1287 17.5651 17.1245L17.5475 17.1235ZM17.5475 9.55793C16.3121 9.55793 15.372 10.5961 15.372 11.8336C15.372 13.069 16.3121 14.0091 17.5485 14.0091C18.8346 14.0091 19.725 13.069 19.725 11.8336C19.7261 10.595 18.8346 9.55793 17.5475 9.55793ZM19.6755 21.5261L22.6949 24.4443C23.2888 25.0858 23.2888 26.0258 22.6949 26.6198C22.0524 27.2612 21.0617 27.2612 20.5669 26.6198L17.5485 23.652L14.6293 26.6198C14.3329 26.9162 13.9362 27.0639 13.4899 27.0639C13.1439 27.0639 12.7483 26.9152 12.4012 26.6198C11.8072 26.0258 11.8072 25.0858 12.4012 24.4433L15.4691 21.5251C14.3612 21.197 13.2984 20.7324 12.3051 20.1419C11.5624 19.7463 11.4147 18.7577 11.8103 18.015C12.3051 17.2733 13.1955 17.076 13.9878 17.5708C15.0607 18.2255 16.2932 18.5719 17.5501 18.5719C18.8069 18.5719 20.0395 18.2255 21.1123 17.5708C21.9046 17.076 22.8436 17.2733 23.2888 18.015C23.7351 18.7577 23.5357 19.7452 22.8426 20.1419C21.9036 20.7359 20.8148 21.1811 19.6765 21.5271L19.6755 21.5261Z" fill="#0039A9"/>
</svg>
