<svg width="86" height="86" viewBox="0 0 86 86" fill="none" xmlns="http://www.w3.org/2000/svg">
<circle cx="43" cy="43" r="42" stroke="#0039A9" stroke-width="2"/>
<path d="M46.0044 50.2761C45.5719 49.8435 44.8732 49.8435 44.4406 50.2761L39.9155 54.8012C39.3499 55.3668 36.4552 54.5793 33.4495 51.5737C30.4439 48.5681 29.6454 45.6733 30.2221 45.1077L34.7472 40.5826C34.9579 40.3719 35.0688 40.0946 35.0688 39.7952C35.0688 39.4957 34.9468 39.2184 34.7472 39.0077L21.671 25.9537C21.2384 25.5212 20.5397 25.5212 20.1072 25.9537L16.7355 29.3253C14.2734 31.7875 14.1292 36.1684 16.3252 41.6473C18.4103 46.8157 22.3586 52.4721 27.4494 57.5628C35.4459 65.5593 44.2299 70.2175 50.2966 70.2175C52.5148 70.2175 54.3781 69.5964 55.6979 68.2766L59.0695 64.905C59.2803 64.6943 59.3912 64.417 59.3912 64.1175C59.3912 63.8181 59.2692 63.5408 59.0695 63.3301L46.0044 50.2761ZM54.123 66.7017C50.6515 70.1732 39.727 66.7017 29.0132 55.9879C24.1221 51.0968 20.3512 45.7066 18.377 40.8155C16.5581 36.2793 16.5359 32.6526 18.2994 30.8892L20.8835 28.305L32.3737 39.7952L28.6361 43.5328C26.5621 45.6068 28.7581 50.0321 31.8635 53.1375C34.9801 56.2541 39.3943 58.439 41.4683 56.365L45.2059 52.6273L56.6961 64.1175L54.123 66.7017ZM41.8897 14.7852C41.2797 14.7852 40.7806 15.2842 40.7806 15.8942C40.7806 16.5042 41.2797 17.0033 41.8897 17.0033C56.2857 17.0033 68.0088 28.7153 68.0088 43.1224C68.0088 43.7324 68.5079 44.2315 69.1179 44.2315C69.7279 44.2315 70.227 43.7324 70.227 43.1224C70.227 27.4953 57.5168 14.7852 41.8897 14.7852Z" fill="#0039A9"/>
<path d="M41.8903 22.5586C41.2803 22.5586 40.7812 23.0577 40.7812 23.6677C40.7812 24.2777 41.2803 24.7768 41.8903 24.7768C52.0052 24.7768 60.2236 33.0062 60.2236 43.11C60.2236 43.72 60.7227 44.2191 61.3327 44.2191C61.9427 44.2191 62.4418 43.72 62.4418 43.11C62.4529 31.7862 53.2252 22.5586 41.8903 22.5586Z" fill="#0039A9"/>
<path d="M52.4489 43.1088C52.4489 43.7188 52.948 44.2178 53.558 44.2178C54.168 44.2178 54.6671 43.7188 54.6671 43.1088C54.6671 36.066 48.9331 30.332 41.8903 30.332C41.2803 30.332 40.7812 30.8311 40.7812 31.4411C40.7812 32.0511 41.2803 32.5502 41.8903 32.5502C47.7131 32.5613 52.4489 37.2971 52.4489 43.1088Z" fill="#0039A9"/>
</svg>
