<svg width="36" height="35" viewBox="0 0 36 35" fill="none" xmlns="http://www.w3.org/2000/svg">
<g clip-path="url(#clip0_166_916)">
<path d="M27.209 12.1592C26.565 12.4392 25.8737 12.6317 25.1475 12.7157C25.8895 12.2782 26.4565 11.5852 26.726 10.761C26.0189 11.173 25.2474 11.4629 24.444 11.6185C24.106 11.2642 23.6994 10.9825 23.249 10.7906C22.7986 10.5986 22.3138 10.5004 21.8242 10.502C19.8415 10.502 18.235 12.0857 18.235 14.037C18.235 14.3135 18.2665 14.583 18.3277 14.842C16.9056 14.7744 15.5131 14.4112 14.2391 13.7754C12.9652 13.1397 11.8377 12.2453 10.9287 11.1495C10.6095 11.6869 10.4414 12.3006 10.4422 12.9257C10.4422 14.1507 11.0775 15.2357 12.04 15.8675C11.4703 15.8496 10.9127 15.6979 10.4125 15.4247V15.4685C10.4179 16.29 10.7079 17.0843 11.2331 17.7161C11.7583 18.3479 12.4862 18.7781 13.293 18.9335C12.7634 19.0735 12.2092 19.0938 11.6707 18.993C11.9055 19.6997 12.3544 20.3159 12.9553 20.7559C13.5561 21.1959 14.2791 21.4378 15.0237 21.4482C13.7462 22.4327 12.1776 22.9646 10.5647 22.9602C10.276 22.9602 9.99073 22.9427 9.70898 22.9112C11.3548 23.953 13.2632 24.5047 15.211 24.502C21.8155 24.502 25.4257 19.1155 25.4257 14.443L25.4135 13.9845C26.1175 13.4897 26.7259 12.8713 27.209 12.1592Z" fill="#0039A9"/>
<path d="M7.95898 3.5C7.03073 3.5 6.14049 3.86875 5.48411 4.52513C4.82773 5.1815 4.45898 6.07174 4.45898 7V28C4.45898 28.9283 4.82773 29.8185 5.48411 30.4749C6.14049 31.1313 7.03073 31.5 7.95898 31.5H28.959C29.8872 31.5 30.7775 31.1313 31.4339 30.4749C32.0902 29.8185 32.459 28.9283 32.459 28V7C32.459 6.07174 32.0902 5.1815 31.4339 4.52513C30.7775 3.86875 29.8872 3.5 28.959 3.5H7.95898ZM7.95898 0H28.959C30.8155 0 32.596 0.737498 33.9087 2.05025C35.2215 3.36301 35.959 5.14348 35.959 7V28C35.959 29.8565 35.2215 31.637 33.9087 32.9497C32.596 34.2625 30.8155 35 28.959 35H7.95898C6.10247 35 4.32199 34.2625 3.00924 32.9497C1.69648 31.637 0.958984 29.8565 0.958984 28V7C0.958984 5.14348 1.69648 3.36301 3.00924 2.05025C4.32199 0.737498 6.10247 0 7.95898 0Z" fill="#0039A9"/>
</g>
<defs>
<clipPath id="clip0_166_916">
<rect width="35" height="35" fill="white" transform="translate(0.958984)"/>
</clipPath>
</defs>
</svg>
