<svg width="36" height="35" viewBox="0 0 36 35" fill="none" xmlns="http://www.w3.org/2000/svg">
<g clip-path="url(#clip0_166_903)">
<path d="M7.32807 0C5.6078 0.00670354 3.95989 0.693053 2.74347 1.90948C1.52704 3.12591 0.840688 4.77381 0.833984 6.49409V28.5059C0.840688 30.2262 1.52704 31.8741 2.74347 33.0905C3.95989 34.3069 5.6078 34.9933 7.32807 35H29.3399C31.0602 34.9933 32.7081 34.3069 33.9245 33.0905C35.1409 31.8741 35.8273 30.2262 35.834 28.5059V6.49409C35.8273 4.77381 35.1409 3.12591 33.9245 1.90948C32.7081 0.693053 31.0602 0.00670354 29.3399 0H7.32807ZM7.32807 3.18182H29.3399C31.1853 3.18182 32.6522 4.64864 32.6522 6.49409V28.5059C32.6522 30.3514 31.1853 31.8182 29.3399 31.8182H7.32807C6.89233 31.8209 6.46038 31.7371 6.05728 31.5716C5.65418 31.4062 5.28794 31.1623 4.97982 30.8542C4.6717 30.546 4.42782 30.1798 4.26234 29.7767C4.09686 29.3736 4.01306 28.9416 4.0158 28.5059V6.49409C4.0158 4.64864 5.48262 3.18182 7.32807 3.18182ZM17.8869 11.5023C16.7176 11.4911 15.7233 11.5023 15.1649 11.7759C14.791 11.9573 14.5063 12.3661 14.6797 12.3852C14.8976 12.417 15.3876 12.522 15.6501 12.8768C15.9842 13.3302 15.9731 14.3564 15.9731 14.3564C15.9731 14.3564 16.1592 17.177 15.5181 17.5318C15.0774 17.7736 14.4744 17.282 13.1699 15.0389C12.5049 13.8839 12.0022 12.6095 12.0022 12.6095C12.0022 12.6095 11.9067 12.3725 11.7349 12.2484C11.5233 12.0941 11.2306 12.0432 11.2306 12.0432L8.11717 12.0623C8.11717 12.0623 7.65103 12.0814 7.48398 12.2802C7.32808 12.4664 7.47126 12.8323 7.47126 12.8323C7.47126 12.8323 9.90694 18.5309 12.6656 21.4025C15.1951 24.0386 18.0667 23.8636 18.0667 23.8636H19.3713C19.3713 23.8636 19.7626 23.8207 19.9615 23.6091C20.1492 23.4102 20.1428 23.0364 20.1428 23.0364C20.1428 23.0364 20.1174 21.2911 20.9256 21.0302C21.7274 20.7805 22.7456 22.7198 23.8338 23.4659C24.661 24.0307 25.2878 23.9066 25.2878 23.9066L28.1976 23.8636C28.1976 23.8636 29.7138 23.7698 28.9931 22.5702C28.9374 22.478 28.5763 21.6889 26.8374 20.0725C25.0094 18.383 25.2529 18.6566 27.4515 15.7293C28.7879 13.9459 29.3224 12.8577 29.1538 12.3852C28.9947 11.9445 28.0115 12.0623 28.0115 12.0623L24.7358 12.0814C24.7358 12.0814 24.494 12.0495 24.3142 12.1561C24.1906 12.2479 24.0921 12.3694 24.0278 12.5093C24.0278 12.5093 23.506 13.8886 22.8156 15.0643C21.3615 17.5366 20.7713 17.6734 20.5358 17.5191C19.9822 17.158 20.119 16.0761 20.119 15.3125C20.119 12.907 20.4849 11.9127 19.411 11.6534C19.0563 11.5659 18.7953 11.5102 17.8885 11.5023H17.8869Z" fill="#0039A9"/>
</g>
<defs>
<clipPath id="clip0_166_903">
<rect width="35" height="35" fill="white" transform="translate(0.833984)"/>
</clipPath>
</defs>
</svg>
