<svg width="39" height="35" viewBox="0 0 39 35" fill="none" xmlns="http://www.w3.org/2000/svg">
<rect x="2.25" y="1.75" width="31.5" height="31.5" rx="4.25" stroke="#0039A9" stroke-width="3.5"/>
<g clip-path="url(#clip0_166_919)">
<path d="M29.2503 17.4987C29.2503 23.3897 24.4747 28.1654 18.5837 28.1654C12.6926 28.1654 7.91699 23.3897 7.91699 17.4987C7.91699 11.6077 12.6926 6.83203 18.5837 6.83203C24.4747 6.83203 29.2503 11.6077 29.2503 17.4987Z" stroke="#0039A9" stroke-width="2"/>
<path fill-rule="evenodd" clip-rule="evenodd" d="M23.6707 19.2323C23.3868 19.0903 21.9963 18.4097 21.7364 18.3155C21.4778 18.2213 21.2897 18.1749 21.1005 18.4562C20.9112 18.7375 20.3686 19.3716 20.2034 19.56C20.0381 19.7484 19.8728 19.771 19.5901 19.6303C19.3075 19.4897 18.3952 19.1921 17.3139 18.2326C16.4723 17.4854 15.9045 16.5637 15.7392 16.2811C15.5739 15.9986 15.7215 15.8466 15.8641 15.706C15.9915 15.5804 16.1467 15.377 16.288 15.2125C16.4294 15.0479 16.476 14.9312 16.5707 14.7428C16.6653 14.5544 16.6186 14.3899 16.5467 14.2493C16.476 14.1074 15.9095 12.721 15.6736 12.1571C15.4452 11.6108 15.2117 11.6837 15.0376 11.6761C14.8573 11.6688 14.6768 11.6654 14.4963 11.6661C14.3528 11.6697 14.2116 11.7028 14.0815 11.7634C13.9515 11.8239 13.8354 11.9105 13.7405 12.0177C13.4806 12.3003 12.75 12.9809 12.75 14.3673C12.75 15.7537 13.7645 17.0936 13.9058 17.282C14.0471 17.4704 15.9019 20.3147 18.7409 21.5354C19.4173 21.8255 19.9447 21.9988 20.3548 22.1294C21.0323 22.3441 21.6494 22.3127 22.1377 22.2411C22.6815 22.1608 23.8121 21.5605 24.048 20.9025C24.284 20.2444 24.284 19.6806 24.2133 19.5625C24.1426 19.4445 23.9521 19.3729 23.6707 19.2323Z" fill="#0039A9"/>
</g>
<defs>
<clipPath id="clip0_166_919">
<rect width="26.25" height="26.25" fill="white" transform="translate(6.33301 3.5)"/>
</clipPath>
</defs>
</svg>
